<?xml version="1.0" encoding="UTF-8" standalone="no"?>
<svg
   xmlns:dc="http://purl.org/dc/elements/1.1/"
   xmlns:cc="http://creativecommons.org/ns#"
   xmlns:rdf="http://www.w3.org/1999/02/22-rdf-syntax-ns#"
   xmlns:svg="http://www.w3.org/2000/svg"
   xmlns="http://www.w3.org/2000/svg"
   xmlns:sodipodi="http://sodipodi.sourceforge.net/DTD/sodipodi-0.dtd"
   xmlns:inkscape="http://www.inkscape.org/namespaces/inkscape"
   version="1.1"
   x="0px"
   y="0px"
   viewBox="0 0 24 23.50025"
   enable-background="new 0 0 24 24"
   xml:space="preserve"
   id="svg16"
   sodipodi:docname="logo.svg"
   width="24"
   height="23.50025"
   inkscape:version="0.92.2 5c3e80d, 2017-08-06"><metadata
     id="metadata22"><rdf:RDF><cc:Work
         rdf:about=""><dc:format>image/svg+xml</dc:format><dc:type
           rdf:resource="http://purl.org/dc/dcmitype/StillImage" /></cc:Work></rdf:RDF></metadata><defs
     id="defs20" /><sodipodi:namedview
     pagecolor="#ffffff"
     bordercolor="#666666"
     borderopacity="1"
     objecttolerance="10"
     gridtolerance="10"
     guidetolerance="10"
     inkscape:pageopacity="0"
     inkscape:pageshadow="2"
     inkscape:window-width="1156"
     inkscape:window-height="804"
     id="namedview18"
     showgrid="false"
     inkscape:zoom="7.8666667"
     inkscape:cx="12"
     inkscape:cy="9"
     inkscape:window-x="482"
     inkscape:window-y="110"
     inkscape:window-maximized="0"
     inkscape:current-layer="svg16" /><g
     id="g10"
     transform="translate(0,-0.49975)"><path
       d="m 12.707,6 4.646,-4.646 c 0.195,-0.195 0.195,-0.512 0,-0.707 -0.195,-0.195 -0.512,-0.195 -0.707,0 L 12,5.293 7.354,0.646 c -0.195,-0.195 -0.512,-0.195 -0.707,0 -0.195,0.195 -0.195,0.512 0,0.707 L 11.293,6 H 0 V 24 H 24 V 6 Z M 22,20 c 0,1.1 -0.9,2 -2,2 H 4 C 2.9,22 2,21.1 2,20 V 10 C 2,8.9 2.9,8 4,8 h 16 c 1.1,0 2,0.9 2,2 z"
       id="path2"
       inkscape:connector-curvature="0" /><circle
       cx="8"
       cy="13"
       r="2"
       id="circle4" /><path
       d="m 13,18 h 7 v -8 h -7 z m 3,-6.5 c 0,-0.276 0.224,-0.5 0.5,-0.5 0.276,0 0.5,0.224 0.5,0.5 v 3 C 17,14.776 16.776,15 16.5,15 16.224,15 16,14.776 16,14.5 Z M 16.5,16 C 16.776,16 17,16.224 17,16.5 17,16.776 16.776,17 16.5,17 16.224,17 16,16.776 16,16.5 16,16.224 16.224,16 16.5,16 Z"
       id="path6"
       inkscape:connector-curvature="0" /><path
       d="M 19.5,20 H 11 v -3 c 0,-0.553 -0.447,-1 -1,-1 H 6 c -0.553,0 -1,0.447 -1,1 v 3 H 4.5 C 4.224,20 4,20.224 4,20.5 4,20.776 4.224,21 4.5,21 h 15 C 19.776,21 20,20.776 20,20.5 20,20.224 19.776,20 19.5,20 Z"
       id="path8"
       inkscape:connector-curvature="0" /></g></svg>